<svg data-v-29081953="" xmlns="http://www.w3.org/2000/svg" viewBox="0 0 300 300"><!----><defs data-v-29081953=""><!----></defs><rect data-v-29081953="" fill="transparent" x="0" y="0" width="300px" height="300px" class="logo-background-square"></rect><!----><defs data-v-29081953=""><linearGradient data-v-29081953="" gradientTransform="rotate(25)" id="ad7d5a60-1a7a-4f3b-bfc5-296f9a0c6306" x1="0%" y1="0%" x2="100%" y2="0%"><stop data-v-29081953="" offset="0%" stop-color="#326D8A" stop-opacity="1"></stop><stop data-v-29081953="" offset="100%" stop-color="#D468D7" stop-opacity="1"></stop></linearGradient></defs><g data-v-29081953="" id="8d60d0c4-6acd-4024-b7d6-fdcdfb39b1e8" fill="url(#ad7d5a60-1a7a-4f3b-bfc5-296f9a0c6306)" stroke="none" transform="matrix(2.474890697299774,0,0,2.474890697299774,26.25322526754175,26.235209557958015)"><path d="M94.428 50.521a12.348 12.348 0 0 0-.136-1.406v-.004l-.006-.03v-.001a.32.32 0 0 1-.007-.033v-.004l-.013-.057c-.033-.201-.07-.401-.114-.6v-.002a.046.046 0 0 0-.004-.013v-.006c-.005-.015-.007-.028-.011-.044v-.005a47.51 47.51 0 0 1-.186-.85c-.686-3.292-.989-6.727-.936-10.5 0-.011-.006-.02-.006-.03l.008-.113a.797.797 0 0 0-.079-.344l.002-.039a13.1 13.1 0 0 0-.135-1.749l.072-.018-.075.005c-.004-.021-.006-.043-.008-.064l.07-.011a.796.796 0 0 0-.116-.309c-.009-.057-.013-.116-.023-.172a11.895 11.895 0 0 0-.62-2.146 11.926 11.926 0 0 0-.994-1.949c-.358-.562-.773-1.1-1.229-1.61-.02-.027-.027-.058-.051-.083l-.008-.007-.004-.006-.005-.004-.004-.006c0-.002-.004-.004-.006-.005v-.002a15.04 15.04 0 0 0-2.982-2.462c-.004-.003-.008-.006-.015-.009l-.002-.001a18.128 18.128 0 0 0-1.645-.925c-.031-.016-.058-.035-.089-.05-.038-.019-.077-.035-.115-.053a21.383 21.383 0 0 0-.649-.299c-.136-.06-.27-.121-.409-.179-.21-.088-.425-.172-.642-.256-.098-.037-.191-.079-.29-.115-.033-.012-.068-.021-.102-.033-.096-.035-.186-.073-.283-.106-.029-.011-.059-.005-.088-.012a25.293 25.293 0 0 0-1.557-.501 29.205 29.205 0 0 0-2.386-.553 36.674 36.674 0 0 0-5.089-.586 45.843 45.843 0 0 0-5.379.068c-.116.008-.237.025-.356.035-.019 0-.035-.009-.054-.007-.786.061-1.575.145-2.367.242-.125.016-.252.036-.377.052-.757.099-1.516.214-2.271.345-.121.021-.24.033-.36.055-.111.02-.22.047-.33.068-.779.144-1.559.303-2.336.48-.094.022-.188.04-.283.062-.875.204-1.748.433-2.615.677-.068.019-.138.033-.204.053-.123.035-.246.079-.369.115-.748.218-1.489.451-2.228.697-.186.062-.371.121-.557.185-.896.309-1.785.637-2.662.986l-.048.018c-.044.017-.085.038-.129.056-.849.341-1.684.703-2.507 1.08l-.089.041c-3.05 1.4-5.913 3.035-8.472 4.861-.015.009-.031.01-.046.02l-.194.14c-.018.013-.026.032-.042.046a41.38 41.38 0 0 0-2.422 1.88l-.001.001-.002.001c-2.74 2.315-6.524 4.609-11.57 7.014h-.001a70.117 70.117 0 0 0-3.583 1.834c-.529.292-1.047.59-1.558.891-.008.004-.018.004-.025.009l-.208.125-.041.024c-4.195 2.49-9.491 6.321-12.297 11.033l-.008.01-.043.073a16.44 16.44 0 0 0-.578 1.065c-.026.054-.043.106-.069.16-.007.012-.019.02-.025.032l-.034.068v.001a11.961 11.961 0 0 0-.833 2.186l-.013.036v.001l-.001.005-.002.009c-.009.023-.019.048-.023.066l-.001.016c-.002.008-.007.019-.008.026-.003.015.002.026 0 .041a9.067 9.067 0 0 0-.284 2.07 7.187 7.187 0 0 0 .247 2.022.777.777 0 0 0 .015.345c.003.014.01.026.014.039l.001.014c.478 1.685.935 3.374 1.371 5.07.05.197.127.387.194.581.007.035.002.071.015.107.035.1.08.194.119.292l.058.146c.736 1.765 2.067 3.28 3.977 4.507l.003.001c.049.031.102.061.154.091.011.008.018.021.029.028l.069.044.003.003c.344.221.71.431 1.09.63.007.005.011.012.019.016.094.051.196.089.292.137.223.111.441.228.674.33.074.034.155.062.23.094.282.123.569.238.859.35l.266.098c3.522 1.293 7.581 1.74 11.447 1.74a57.93 57.93 0 0 0 4.275-.164l.103-.008c.048-.003.095-.008.143-.012.223-.017.445-.034.667-.053.008-.001.014-.006.022-.007a72.2 72.2 0 0 0 5.354-.678l.014-.001.466-.07c4.785-.724 9.307-1.407 14.074-1.043a46.55 46.55 0 0 0 3.582.137h.198c.04 0 .079-.003.119-.003.006 0 .01.003.017.003h.006c.086-.001.175-.01.263-.011a48.564 48.564 0 0 0 2.411-.096c.241-.015.481-.029.723-.048.14-.011.279-.016.419-.027a50.09 50.09 0 0 0 2.226-.242c.178-.023.354-.051.531-.076a54.067 54.067 0 0 0 2.424-.394c.165-.031.327-.058.492-.09a51.62 51.62 0 0 0 2.194-.475c.142-.033.279-.073.421-.109.272-.067.546-.141.818-.213a53.214 53.214 0 0 0 3.428-1.033 47.563 47.563 0 0 0 2.957-1.093c.041-.017.085-.031.127-.049.096-.039.188-.082.281-.122 1.483-.616 2.934-1.275 4.305-2.015 4.177-2.25 7.331-4.684 9.926-7.658 2.095-2.403 4.516-6.103 4.739-10.505 0-.021.004-.044.006-.066 0-.012-.002-.022 0-.034.015-.355.021-.715.004-1.08-.001-.022-.009-.032-.009-.045zM36.814 37.087c5.171-4.969 11.511-8.002 15.918-9.672 6.08-2.303 12.423-3.549 18.346-3.605 4.43-.037 12.565.607 17.085 5.422.002.003.007.003.009.006l.019.022c.511.548.954 1.136 1.323 1.749a9.836 9.836 0 0 1 1.32 3.807c.094.716.114 1.463.066 2.22-.052.788-.18 1.605-.384 2.431a18.088 18.088 0 0 1-.756 2.353 23.21 23.21 0 0 1-1.174 2.49 29.899 29.899 0 0 1-1.606 2.6c-.612.89-1.3 1.792-2.042 2.681a46.179 46.179 0 0 1-2.476 2.728 54.786 54.786 0 0 1-2.895 2.737 65.07 65.07 0 0 1-2.907 2.41 77.816 77.816 0 0 1-7.11 4.925 91.926 91.926 0 0 1-7.616 4.196 98.541 98.541 0 0 1-8.694 3.763 95.807 95.807 0 0 1-8.87 2.863 87.557 87.557 0 0 1-4.604 1.108 80.716 80.716 0 0 1-4.453.81c-1.439.218-2.867.39-4.24.511a58.766 58.766 0 0 1-3.972.216 46.23 46.23 0 0 1-3.652-.068 36.575 36.575 0 0 1-3.293-.338 27.614 27.614 0 0 1-2.899-.583 20.513 20.513 0 0 1-2.734-.908c-.809-.337-1.55-.72-2.202-1.138a9.955 9.955 0 0 1-1.67-1.321 7.729 7.729 0 0 1-.662-.74l-.021-.03a6.947 6.947 0 0 1-.523-.764c-.036-.061-.06-.126-.093-.188a6.916 6.916 0 0 1-.368-.792 6.245 6.245 0 0 1-.231-.688c-.061-.234-.128-.467-.189-.7.367.304.756.599 1.188.873.623.394 1.322.76 2.077 1.084.762.33 1.568.613 2.463.868a27.57 27.57 0 0 0 2.831.639c1.016.176 2.086.308 3.179.396 1.11.092 2.289.141 3.501.146l.244.001c1.13 0 2.321-.039 3.543-.116a67.435 67.435 0 0 0 4.03-.382 82.216 82.216 0 0 0 8.095-1.439 95.857 95.857 0 0 0 8.397-2.342 100.465 100.465 0 0 0 8.286-3.133 94.392 94.392 0 0 0 7.771-3.763 86.596 86.596 0 0 0 3.786-2.18 76.989 76.989 0 0 0 3.497-2.269 67.413 67.413 0 0 0 3.178-2.327 56.865 56.865 0 0 0 2.83-2.354 47.538 47.538 0 0 0 2.461-2.353c.75-.772 1.45-1.555 2.086-2.326a29.456 29.456 0 0 0 1.865-2.523 22.4 22.4 0 0 0 1.397-2.437c.384-.787.698-1.571.934-2.328.236-.748.398-1.49.486-2.202.087-.703.104-1.395.05-2.059a8.565 8.565 0 0 0-.43-2.062 8.105 8.105 0 0 0-.89-1.818 8.998 8.998 0 0 0-1.384-1.632c-.013-.012-.022-.027-.037-.04l-.013-.008-.006-.008-.005.002c-.006-.006-.008-.015-.015-.021-4.81-4.386-13.486-3.84-16.996-3.402-5.476.684-11.198 2.472-16.546 5.171-5.495 2.771-10.293 6.37-13.875 10.408-3.467 3.907-5.683 8.149-6.475 12.257l-.241-.67-.002-.011c-1.126-7.129 3.896-13.18 6.99-16.153zm23.284 2.323c4.335-.159 14.908-.04 21.703 4.268-1.529 2.194-3.373 4.102-4.766 5.401-3.573 3.339-7.697 6.252-12.978 9.17-6.223 3.437-13.07 6.203-19.948 8.139a35.182 35.182 0 0 1-2.188-.711c-.14-.051-.285-.099-.422-.152-.174-.065-.337-.135-.506-.203-.31-.125-.619-.251-.921-.385-.175-.077-.345-.158-.516-.238a22.127 22.127 0 0 1-4.621-2.888c-1.501-1.27-2.702-2.692-3.592-4.219l-.003-.021-.002-.021c-.044-1.911.289-3.745.837-5.457a.776.776 0 0 0 .131-.228c.218-.593.473-1.163.735-1.729.151-.323.306-.646.477-.969.034-.066.071-.129.105-.194.959-1.777 2.192-3.54 3.668-5.243 7.502-2.547 15.383-4.043 22.807-4.32zm-20.49 1.893c.49-.471.994-.936 1.52-1.392a46.565 46.565 0 0 1 5.008-3.761 51.859 51.859 0 0 1 5.528-3.135 53.606 53.606 0 0 1 6.038-2.509 49.48 49.48 0 0 1 6.281-1.716 40.526 40.526 0 0 1 5.764-.754c.946-.053 1.88-.065 2.775-.034.893.029 1.759.099 2.576.208.823.111 1.608.261 2.336.447.729.186 1.421.413 2.057.675.634.262 1.219.56 1.74.889.483.304.923.64 1.309.999.004.003.011.005.015.009.002.004.004.009.008.013 0 0 0 .002.003.002 1.388 1.304 2.098 2.932 2.11 4.837.017 2.113-.818 4.257-1.998 6.236-6.885-4.395-17.061-4.731-22.635-4.522-6.646.252-13.649 1.459-20.435 3.508zM7.664 59.107l.004-.02c.164-.643.411-1.306.735-1.975.329-.679.727-1.35 1.217-2.05a21.614 21.614 0 0 1 1.673-2.086 28.802 28.802 0 0 1 2.093-2.081c.743-.67 1.555-1.34 2.411-1.993l.087-.068a45.64 45.64 0 0 1 1.321-.96l.279-.195c.442-.306.895-.61 1.359-.91l.204-.131a59.074 59.074 0 0 1 3.332-1.976 68.547 68.547 0 0 1 3.501-1.792h.001a81.476 81.476 0 0 0 5.661-2.956c-.303.412-.595.826-.864 1.241a22.452 22.452 0 0 0-1.384 2.446 19.095 19.095 0 0 0-1 2.481 16.844 16.844 0 0 0-.57 2.315 15.057 15.057 0 0 0-.218 2.483 14.25 14.25 0 0 0 .199 2.428v.003l.002.013.001.004.012.068v.005l.002.01.001.004c.144.81.361 1.614.648 2.394.29.788.658 1.567 1.093 2.316.436.747.949 1.48 1.527 2.181.579.7 1.234 1.378 1.947 2.014a21.52 21.52 0 0 0 2.343 1.815 26.066 26.066 0 0 0 2.49 1.478c.123.063.254.121.379.184.248.126.503.247.759.366.159.074.314.149.475.222.351.156.714.306 1.083.452.108.044.213.093.322.134.032.013.065.023.097.036.128.048.262.094.393.142a85.152 85.152 0 0 1-7.304 1.479c-4.395.681-10.843 1.27-16.604.204-3.151-.582-5.716-1.615-7.417-2.99-2.197-1.78-2.968-4.046-2.29-6.735zm85.165-7.478c-.037.747-.15 1.51-.338 2.269a13.933 13.933 0 0 1-.809 2.345 17.57 17.57 0 0 1-1.271 2.354 21.907 21.907 0 0 1-1.728 2.319 27.386 27.386 0 0 1-2.15 2.243 32.599 32.599 0 0 1-2.541 2.122 37.83 37.83 0 0 1-2.878 1.963 44.88 44.88 0 0 1-6.352 3.229c-.096.04-.191.082-.287.121a43.253 43.253 0 0 1-2.651.986c-.623.215-1.251.417-1.884.608-.534.16-1.069.314-1.607.458-.312.082-.623.166-.936.243-.809.197-1.619.382-2.434.542-.202.04-.404.073-.608.111-.733.135-1.47.255-2.207.358-.196.027-.392.059-.59.084a51.13 51.13 0 0 1-2.542.26c-.231.018-.465.031-.696.046-.785.05-1.567.083-2.345.093-.129.002-.258.009-.385.01a44.99 44.99 0 0 1-3.65-.132h-.001a36.86 36.86 0 0 0-3.02-.093 96.23 96.23 0 0 0 3.562-1.175 99.373 99.373 0 0 0 9.921-4.127 95.33 95.33 0 0 0 4.479-2.302 90.33 90.33 0 0 0 4.253-2.481 82.43 82.43 0 0 0 4.391-2.925 73.262 73.262 0 0 0 3.597-2.743c1.259-1.024 2.457-2.076 3.558-3.123s2.13-2.109 3.055-3.156a41.279 41.279 0 0 0 2.528-3.142 32.089 32.089 0 0 0 1.987-3.088 25.038 25.038 0 0 0 1.413-2.921 45.78 45.78 0 0 0 .721 4.804v.001c0 .007.003.014.005.021l.32 1.548.002.019a10.9 10.9 0 0 1 .121 2.204l-.003.047z"></path></g><!----></svg>