<?xml version="1.0" encoding="UTF-8"?>
<svg xmlns="http://www.w3.org/2000/svg" xmlns:xlink="http://www.w3.org/1999/xlink" width="32pt" height="32pt" viewBox="0 0 32 32" version="1.1">
<g id="surface394175">
<path style=" stroke:none;fill-rule:nonzero;fill:rgb(32.941176%,31.764706%,30.196078%);fill-opacity:1;" d="M 20.308594 4.0625 L 24.617188 4.0625 L 16.492188 20.796875 C 16.742188 21.539062 17.230469 24.617188 17.230469 26.832031 C 17.230469 30.523438 16.246094 32.125 14.769531 32.125 C 13.292969 32.125 12.308594 30.769531 12.308594 28.554688 C 12.308594 25.722656 14.027344 22.769531 15.015625 20.921875 C 14.769531 18.953125 14.398438 17.355469 13.910156 14.523438 C 13.414062 11.691406 12.796875 9.722656 12.183594 8.492188 C 11.566406 7.257812 10.832031 6.644531 9.722656 6.644531 C 8 6.644531 7.257812 7.875 7.140625 10.460938 L 6.152344 10.460938 C 6.152344 6.027344 7.507812 3.691406 10.214844 3.691406 C 11.816406 3.691406 12.921875 4.554688 13.664062 6.398438 C 14.398438 8.246094 15.257812 12.183594 16 18.335938 Z M 20.308594 4.0625 "/>
</g>
</svg>
